<?xml version="1.0" standalone="no"?>
<!DOCTYPE svg PUBLIC "-//W3C//DTD SVG 20010904//EN"
 "http://www.w3.org/TR/2001/REC-SVG-20010904/DTD/svg10.dtd">
<svg version="1.0" xmlns="http://www.w3.org/2000/svg"
 width="220.000000pt" height="277.000000pt" viewBox="0 0 220.000000 277.000000"
 preserveAspectRatio="xMidYMid meet">
<metadata>
Created by potrace 1.16, written by Peter Selinger 2001-2019
</metadata>
<g transform="translate(0.000000,277.000000) scale(0.100000,-0.100000)"
fill="#000000" stroke="none">
<path d="M907 2133 c-22 -302 -24 -886 -3 -1113 30 -316 36 -419 36 -577 0
-90 -1 -163 -3 -163 -1 0 -61 -7 -132 -16 -79 -9 -236 -16 -398 -18 -249 -3
-290 -6 -274 -22 25 -26 475 -27 702 -2 57 6 314 11 595 12 459 1 495 2 498
18 2 12 -6 20 -25 25 -15 3 -220 7 -455 7 l-426 1 -6 175 c-8 213 -22 430 -41
610 -10 87 -17 306 -20 615 -3 264 -8 518 -11 563 l-5 84 63 -6 c183 -16 244
-16 403 -1 195 18 215 22 215 35 0 13 -98 13 -175 0 -91 -15 -498 -16 -503 -2
-12 36 -19 -11 -35 -225z"/>
<path d="M1611 2157 l-1 -188 -31 -17 c-128 -70 -169 -123 -169 -220 0 -106
79 -196 192 -217 l35 -7 7 -91 c3 -49 5 -92 3 -94 -2 -1 -58 22 -124 52 -123
55 -203 78 -203 56 0 -6 5 -11 12 -11 6 0 82 -39 168 -87 l158 -88 6 -120 c4
-66 9 -127 12 -136 2 -9 -32 -61 -83 -125 -120 -151 -167 -220 -159 -240 12
-31 42 -8 99 76 102 149 155 230 160 243 3 7 36 -19 83 -65 159 -154 209 -186
209 -130 0 17 -29 41 -130 110 l-130 88 -7 125 c-3 68 -9 145 -12 170 l-5 47
102 60 c56 33 130 74 165 91 45 23 62 37 62 51 0 12 -6 23 -13 25 -17 7 -130
-55 -228 -125 -55 -39 -86 -55 -90 -48 -4 7 -10 39 -14 72 -4 34 -8 68 -11 77
-3 12 7 19 40 29 100 28 166 120 166 231 0 122 -67 212 -179 239 l-48 11 -7
117 c-3 64 -12 142 -20 172 -13 53 -14 48 -15 -133z m116 -238 c28 -10 73 -47
73 -59 0 -4 -18 -12 -41 -19 -33 -10 -44 -10 -56 1 -14 11 -16 10 -11 -10 4
-15 1 -25 -10 -31 -25 -14 -9 -23 20 -12 15 5 30 6 39 0 8 -5 20 -9 28 -9 11
0 11 3 1 15 -15 18 -5 32 25 37 16 2 21 -5 28 -39 10 -42 4 -96 -12 -121 -7
-11 -16 -11 -55 2 -62 21 -158 20 -224 -3 -51 -17 -53 -17 -62 0 -15 27 -12
105 5 145 l15 35 24 -18 25 -18 -21 -18 c-25 -21 -18 -33 12 -17 12 7 34 8 53
4 29 -6 30 -5 17 11 -12 15 -12 18 3 27 26 14 10 29 -18 16 -19 -9 -29 -7 -50
6 -23 15 -24 20 -13 33 40 49 136 69 205 42z m20 -262 c42 -16 43 -26 1 -60
-42 -34 -94 -43 -151 -27 -47 13 -106 54 -95 65 31 31 182 45 245 22z"/>
</g>
</svg>
